<?xml version="1.0" encoding="UTF-8"?>
<!DOCTYPE svg PUBLIC "-//W3C//DTD SVG 1.1//EN" "http://www.w3.org/Graphics/SVG/1.1/DTD/svg11.dtd">
<svg version="1.1" xmlns="http://www.w3.org/2000/svg" xmlns:xlink="http://www.w3.org/1999/xlink" x="0px" y="0px" width="24" height="120" viewBox="0, 0, 24, 120">
  <g id="Page 1">
    <path d="M12,21 C9.858,21 8.121,19.263 8.121,17.121 C8.121,14.979 9.858,13.242 12,13.242 C14.142,13.242 15.879,14.979 15.879,17.121 C15.879,19.263 14.142,21 12,21 z" fill-opacity="0" stroke="#BBBBBB" stroke-width="1.25"/>
    <path d="M18,10.554 C16.104,10.554 14.567,9.017 14.567,7.121 C14.567,5.225 16.104,3.688 18,3.688 C19.896,3.688 21.433,5.225 21.433,7.121 C21.433,9.017 19.896,10.554 18,10.554 z" fill-opacity="0" stroke="#BBBBBB" stroke-width="1.5"/>
    <path d="M6,10.554 C4.104,10.554 2.567,9.017 2.567,7.121 C2.567,5.225 4.104,3.688 6,3.688 C7.896,3.688 9.433,5.225 9.433,7.121 C9.433,9.017 7.896,10.554 6,10.554 z" fill-opacity="0" stroke="#BBBBBB" stroke-width="1.5"/>
    <g>
      <path d="M12,19.412 C10.735,19.412 9.709,18.387 9.709,17.121 C9.709,15.856 10.735,14.83 12,14.83 C13.265,14.83 14.291,15.856 14.291,17.121 C14.291,18.387 13.265,19.412 12,19.412 z" fill="#BBBBBB"/>
      <path d="M12,19.412 C10.735,19.412 9.709,18.387 9.709,17.121 C9.709,15.856 10.735,14.83 12,14.83 C13.265,14.83 14.291,15.856 14.291,17.121 C14.291,18.387 13.265,19.412 12,19.412 z" fill-opacity="0" stroke="#BBBBBB" stroke-width="0.25"/>
    </g>
    <path d="M14.291,13.551 L16.25,10.114" fill-opacity="0" stroke="#BBBBBB" stroke-width="1"/>
    <path d="M9.938,13.801 L7.688,10.114" fill-opacity="0" stroke="#BBBBBB" stroke-width="1"/>
    <path d="M12,45 C9.858,45 8.121,43.263 8.121,41.121 C8.121,38.979 9.858,37.242 12,37.242 C14.142,37.242 15.879,38.979 15.879,41.121 C15.879,43.263 14.142,45 12,45 z" fill-opacity="0" stroke="#93CE3D" stroke-width="1.25"/>
    <path d="M18,34.554 C16.104,34.554 14.567,33.017 14.567,31.121 C14.567,29.225 16.104,27.688 18,27.688 C19.896,27.688 21.433,29.225 21.433,31.121 C21.433,33.017 19.896,34.554 18,34.554 z" fill-opacity="0" stroke="#93CE3D" stroke-width="1.5"/>
    <path d="M6,34.554 C4.104,34.554 2.567,33.017 2.567,31.121 C2.567,29.225 4.104,27.688 6,27.688 C7.896,27.688 9.433,29.225 9.433,31.121 C9.433,33.017 7.896,34.554 6,34.554 z" fill-opacity="0" stroke="#93CE3D" stroke-width="1.5"/>
    <g>
      <path d="M12,43.412 C10.735,43.412 9.709,42.387 9.709,41.121 C9.709,39.856 10.735,38.83 12,38.83 C13.265,38.83 14.291,39.856 14.291,41.121 C14.291,42.387 13.265,43.412 12,43.412 z" fill="#92CF2F"/>
      <path d="M12,43.412 C10.735,43.412 9.709,42.387 9.709,41.121 C9.709,39.856 10.735,38.83 12,38.83 C13.265,38.83 14.291,39.856 14.291,41.121 C14.291,42.387 13.265,43.412 12,43.412 z" fill-opacity="0" stroke="#92CF2F" stroke-width="0.25"/>
    </g>
    <path d="M14.291,37.551 L16.25,34.114" fill-opacity="0" stroke="#92CF2F" stroke-width="1"/>
    <path d="M9.938,37.801 L7.688,34.114" fill-opacity="0" stroke="#92CF2F" stroke-width="1"/>
    <path d="M12,69 C9.858,69 8.121,67.263 8.121,65.121 C8.121,62.979 9.858,61.242 12,61.242 C14.142,61.242 15.879,62.979 15.879,65.121 C15.879,67.263 14.142,69 12,69 z" fill-opacity="0" stroke="#6EB0F6" stroke-width="1.25"/>
    <path d="M18,58.554 C16.104,58.554 14.567,57.017 14.567,55.121 C14.567,53.225 16.104,51.688 18,51.688 C19.896,51.688 21.433,53.225 21.433,55.121 C21.433,57.017 19.896,58.554 18,58.554 z" fill-opacity="0" stroke="#73B1F4" stroke-width="1.5"/>
    <path d="M6,58.554 C4.104,58.554 2.567,57.017 2.567,55.121 C2.567,53.225 4.104,51.688 6,51.688 C7.896,51.688 9.433,53.225 9.433,55.121 C9.433,57.017 7.896,58.554 6,58.554 z" fill-opacity="0" stroke="#73B1F4" stroke-width="1.5"/>
    <g>
      <path d="M11.914,67.436 C10.648,67.436 9.622,66.41 9.622,65.145 C9.622,63.88 10.648,62.854 11.914,62.854 C13.179,62.854 14.205,63.88 14.205,65.145 C14.205,66.41 13.179,67.436 11.914,67.436 z" fill="#73B1F4"/>
      <path d="M11.914,67.436 C10.648,67.436 9.622,66.41 9.622,65.145 C9.622,63.88 10.648,62.854 11.914,62.854 C13.179,62.854 14.205,63.88 14.205,65.145 C14.205,66.41 13.179,67.436 11.914,67.436 z" fill-opacity="0" stroke="#73B1F4" stroke-width="0.25"/>
    </g>
    <path d="M14.291,61.551 L16.25,58.114" fill-opacity="0" stroke="#6EB0F6" stroke-width="1"/>
    <path d="M9.938,61.801 L7.688,58.114" fill-opacity="0" stroke="#6EB0F6" stroke-width="1"/>
    <path d="M12,93 C9.858,93 8.121,91.263 8.121,89.121 C8.121,86.979 9.858,85.242 12,85.242 C14.142,85.242 15.879,86.979 15.879,89.121 C15.879,91.263 14.142,93 12,93 z" fill-opacity="0" stroke="#E7B73D" stroke-width="1.25"/>
    <path d="M18,82.554 C16.104,82.554 14.567,81.017 14.567,79.121 C14.567,77.225 16.104,75.688 18,75.688 C19.896,75.688 21.433,77.225 21.433,79.121 C21.433,81.017 19.896,82.554 18,82.554 z" fill-opacity="0" stroke="#E5B648" stroke-width="1.5"/>
    <path d="M6,82.554 C4.104,82.554 2.567,81.017 2.567,79.121 C2.567,77.225 4.104,75.688 6,75.688 C7.896,75.688 9.433,77.225 9.433,79.121 C9.433,81.017 7.896,82.554 6,82.554 z" fill-opacity="0" stroke="#E5B648" stroke-width="1.5"/>
    <g>
      <path d="M12,91.412 C10.735,91.412 9.709,90.387 9.709,89.121 C9.709,87.856 10.735,86.83 12,86.83 C13.265,86.83 14.291,87.856 14.291,89.121 C14.291,90.387 13.265,91.412 12,91.412 z" fill="#E5B648"/>
      <path d="M12,91.412 C10.735,91.412 9.709,90.387 9.709,89.121 C9.709,87.856 10.735,86.83 12,86.83 C13.265,86.83 14.291,87.856 14.291,89.121 C14.291,90.387 13.265,91.412 12,91.412 z" fill-opacity="0" stroke="#E5B648" stroke-width="0.25"/>
    </g>
    <path d="M14.303,85.484 L16.262,82.046" fill-opacity="0" stroke="#E5B648" stroke-width="1"/>
    <path d="M9.938,85.801 L7.688,82.114" fill-opacity="0" stroke="#E5B648" stroke-width="1"/>
    <path d="M12,117 C9.858,117 8.121,115.263 8.121,113.121 C8.121,110.979 9.858,109.242 12,109.242 C14.142,109.242 15.879,110.979 15.879,113.121 C15.879,115.263 14.142,117 12,117 z" fill-opacity="0" stroke="#FA4486" stroke-width="1.25"/>
    <path d="M18,106.554 C16.104,106.554 14.567,105.017 14.567,103.121 C14.567,101.225 16.104,99.688 18,99.688 C19.896,99.688 21.433,101.225 21.433,103.121 C21.433,105.017 19.896,106.554 18,106.554 z" fill-opacity="0" stroke="#FA4486" stroke-width="1.5"/>
    <path d="M6,106.554 C4.104,106.554 2.567,105.017 2.567,103.121 C2.567,101.225 4.104,99.688 6,99.688 C7.896,99.688 9.433,101.225 9.433,103.121 C9.433,105.017 7.896,106.554 6,106.554 z" fill-opacity="0" stroke="#FA4486" stroke-width="1.5"/>
    <g>
      <path d="M12.005,115.396 C10.74,115.396 9.714,114.37 9.714,113.105 C9.714,111.839 10.74,110.813 12.005,110.813 C13.271,110.813 14.296,111.839 14.296,113.105 C14.296,114.37 13.271,115.396 12.005,115.396 z" fill="#FA4486"/>
      <path d="M12.005,115.396 C10.74,115.396 9.714,114.37 9.714,113.105 C9.714,111.839 10.74,110.813 12.005,110.813 C13.271,110.813 14.296,111.839 14.296,113.105 C14.296,114.37 13.271,115.396 12.005,115.396 z" fill-opacity="0" stroke="#FA4486" stroke-width="0.25"/>
    </g>
    <path d="M14.291,109.551 L16.25,106.114" fill-opacity="0" stroke="#FA4486" stroke-width="1"/>
    <path d="M9.938,109.801 L7.688,106.114" fill-opacity="0" stroke="#FA4486" stroke-width="1"/>
  </g>
  <defs/>
</svg>
